<?xml version="1.0" encoding="UTF-8" standalone="no"?>
<svg
   xmlns:dc="http://purl.org/dc/elements/1.1/"
   xmlns:cc="http://creativecommons.org/ns#"
   xmlns:rdf="http://www.w3.org/1999/02/22-rdf-syntax-ns#"
   xmlns:svg="http://www.w3.org/2000/svg"
   xmlns="http://www.w3.org/2000/svg"
   xmlns:sodipodi="http://sodipodi.sourceforge.net/DTD/sodipodi-0.dtd"
   xmlns:inkscape="http://www.inkscape.org/namespaces/inkscape"
   width="7.1357827mm"
   height="8.4666662mm"
   viewBox="0 0 7.1357827 8.4666662"
   version="1.1"
   id="svg8"
   sodipodi:docname="drawing.svg"
   inkscape:version="1.0.1 (3bc2e813f5, 2020-09-07)">
  <defs
     id="defs2" />
  <sodipodi:namedview
     id="base"
     pagecolor="#ffffff"
     bordercolor="#666666"
     borderopacity="1.0"
     inkscape:pageopacity="0.0"
     inkscape:pageshadow="2"
     inkscape:zoom="7.9195959"
     inkscape:cx="6.6113344"
     inkscape:cy="39.915982"
     inkscape:document-units="mm"
     inkscape:current-layer="layer1"
     inkscape:document-rotation="0"
     showgrid="false"
     inkscape:window-width="1794"
     inkscape:window-height="1198"
     inkscape:window-x="1908"
     inkscape:window-y="5"
     inkscape:window-maximized="0"
     fit-margin-top="0"
     fit-margin-left="0"
     fit-margin-right="0"
     fit-margin-bottom="0" />
  <metadata
     id="metadata5">
    <rdf:RDF>
      <cc:Work
         rdf:about="">
        <dc:format>image/svg+xml</dc:format>
        <dc:type
           rdf:resource="http://purl.org/dc/dcmitype/StillImage" />
        <dc:title></dc:title>
      </cc:Work>
    </rdf:RDF>
  </metadata>
  <g
     inkscape:label="Layer 1"
     inkscape:groupmode="layer"
     id="layer1"
     transform="translate(-127.21187,-25.24881)">
    <path
       d="m 130.38687,31.66178 v 2.053696 l -3.175,-3.175 3.175,-3.175 v 2.098675 c 3.69385,0.08652 3.53536,-2.511689 2.59503,-4.215341 2.32093,2.508779 1.82801,6.528329 -2.59503,6.41297 z"
       id="path861"
       style="stroke-width:0.264583" />
    <path
       style="fill:#ffffff;fill-opacity:1;stroke:#000000;stroke-width:0.238245"
       d="M 5.9765248,25.986278 -0.05027533,19.957314 5.8882241,14.020798 c 3.2661746,-3.265083 5.9983239,-5.9365144 6.0714429,-5.9365144 0.07312,0 0.132944,1.7678571 0.132944,3.9285714 v 3.928571 h 0.632038 c 1.420111,0 4.161894,-0.410691 5.442481,-0.815229 1.713488,-0.54129 3.33517,-1.579397 4.164999,-2.66619 C 24.22405,9.9822331 24.363805,6.1059888 22.70835,2.0252334 22.372446,1.1972201 22.131157,0.4862127 22.172154,0.44521701 22.344209,0.27316215 24.49615,3.4480136 25.230102,4.9567375 c 2.139509,4.3980131 2.291955,9.4113935 0.395457,13.0050375 -0.811918,1.538489 -2.928257,3.617005 -4.515091,4.434398 -2.208636,1.137687 -4.127796,1.628089 -7.27574,1.859162 l -1.735287,0.127379 -0.04806,3.816264 -0.04806,3.816265 z"
       id="path872"
       transform="matrix(0.26458333,0,0,0.26458333,127.21187,25.24881)" />
  </g>
</svg>
