<?xml version="1.0" encoding="UTF-8" standalone="no"?>
<svg
   xmlns:dc="http://purl.org/dc/elements/1.1/"
   xmlns:cc="http://creativecommons.org/ns#"
   xmlns:rdf="http://www.w3.org/1999/02/22-rdf-syntax-ns#"
   xmlns:svg="http://www.w3.org/2000/svg"
   xmlns="http://www.w3.org/2000/svg"
   xmlns:sodipodi="http://sodipodi.sourceforge.net/DTD/sodipodi-0.dtd"
   xmlns:inkscape="http://www.inkscape.org/namespaces/inkscape"
   width="7.9375mm"
   height="7.9375mm"
   viewBox="0 0 7.9375 7.9375"
   version="1.1"
   id="svg8"
   inkscape:version="1.0.1 (3bc2e813f5, 2020-09-07)"
   sodipodi:docname="coin-gold-white.svg">
  <defs
     id="defs2" />
  <sodipodi:namedview
     id="base"
     pagecolor="#ffffff"
     bordercolor="#666666"
     borderopacity="1.0"
     inkscape:pageopacity="0.0"
     inkscape:pageshadow="2"
     inkscape:zoom="11.2"
     inkscape:cx="8.0145673"
     inkscape:cy="19.961983"
     inkscape:document-units="mm"
     inkscape:current-layer="layer1"
     inkscape:document-rotation="0"
     showgrid="false"
     fit-margin-top="0"
     fit-margin-left="0"
     fit-margin-right="0"
     fit-margin-bottom="0"
     inkscape:window-width="1920"
     inkscape:window-height="1017"
     inkscape:window-x="4472"
     inkscape:window-y="-8"
     inkscape:window-maximized="1" />
  <metadata
     id="metadata5">
    <rdf:RDF>
      <cc:Work
         rdf:about="">
        <dc:format>image/svg+xml</dc:format>
        <dc:type
           rdf:resource="http://purl.org/dc/dcmitype/StillImage" />
        <dc:title></dc:title>
      </cc:Work>
    </rdf:RDF>
  </metadata>
  <g
     inkscape:label="Layer 1"
     inkscape:groupmode="layer"
     id="layer1"
     transform="translate(-133.61458,-12.662202)">
    <path
       d="m 137.58333,12.662202 c -2.1918,0 -3.96875,1.776942 -3.96875,3.96875 0,2.191809 1.77695,3.96875 3.96875,3.96875 2.19181,0 3.96875,-1.776941 3.96875,-3.96875 0,-2.191808 -1.77694,-3.96875 -3.96875,-3.96875 z m 0,7.14375 c -1.75339,0 -3.175,-1.421606 -3.175,-3.175 0,-1.753393 1.42161,-3.175 3.175,-3.175 1.7534,0 3.175,1.421607 3.175,3.175 0,1.753394 -1.4216,3.175 -3.175,3.175 z m 0.26459,-3.439583 v -1.058333 h 1.05833 v -0.529167 h -1.05833 v -0.529167 h -0.52917 v 0.529167 h -1.05833 v 2.116667 h 1.05833 v 1.058333 h -1.05833 v 0.529167 h 1.05833 v 0.529166 h 0.52917 v -0.529166 h 1.05833 v -2.116667 z m -0.52917,0 h -0.52917 v -1.058333 h 0.52917 z m 1.05833,1.5875 h -0.52916 v -1.058333 h 0.52916 z"
       id="path835"
       style="stroke-width:0.264583;fill:#ffffff;fill-opacity:1" />
  </g>
</svg>
