<?xml version="1.0" encoding="UTF-8" standalone="no"?>
<svg
   xmlns:dc="http://purl.org/dc/elements/1.1/"
   xmlns:cc="http://creativecommons.org/ns#"
   xmlns:rdf="http://www.w3.org/1999/02/22-rdf-syntax-ns#"
   xmlns:svg="http://www.w3.org/2000/svg"
   xmlns="http://www.w3.org/2000/svg"
   xmlns:sodipodi="http://sodipodi.sourceforge.net/DTD/sodipodi-0.dtd"
   xmlns:inkscape="http://www.inkscape.org/namespaces/inkscape"
   width="8.4670191mm"
   height="8.4670296mm"
   viewBox="0 0 8.4670191 8.4670296"
   version="1.1"
   id="svg8"
   inkscape:version="1.0.1 (3bc2e813f5, 2020-09-07)"
   sodipodi:docname="exit1.svg">
  <defs
     id="defs2" />
  <sodipodi:namedview
     id="base"
     pagecolor="#ffffff"
     bordercolor="#666666"
     borderopacity="1.0"
     inkscape:pageopacity="0.0"
     inkscape:pageshadow="2"
     inkscape:zoom="15.839192"
     inkscape:cx="15.609571"
     inkscape:cy="19.907456"
     inkscape:document-units="mm"
     inkscape:current-layer="layer1"
     inkscape:document-rotation="0"
     showgrid="false"
     inkscape:window-width="2560"
     inkscape:window-height="1377"
     inkscape:window-x="1912"
     inkscape:window-y="-8"
     inkscape:window-maximized="1"
     fit-margin-top="0"
     fit-margin-left="0"
     fit-margin-right="0"
     fit-margin-bottom="0" />
  <metadata
     id="metadata5">
    <rdf:RDF>
      <cc:Work
         rdf:about="">
        <dc:format>image/svg+xml</dc:format>
        <dc:type
           rdf:resource="http://purl.org/dc/dcmitype/StillImage" />
        <dc:title></dc:title>
      </cc:Work>
    </rdf:RDF>
  </metadata>
  <g
     inkscape:label="Layer 1"
     inkscape:groupmode="layer"
     id="layer1"
     transform="translate(-105.37955,-119.74269)">
    <path
       d="m 113.76917,126.54477 c 0,0 0,0 0,0 l -2.56858,-2.56858 2.56858,-2.56857 c 0,0 0,0 0,0 0.0278,-0.0278 0.0476,-0.0601 0.0606,-0.0945 0.0352,-0.0942 0.0151,-0.20399 -0.0606,-0.27967 l -1.21338,-1.21337 c -0.0757,-0.0757 -0.18574,-0.0955 -0.27966,-0.0606 -0.0344,0.0127 -0.0667,0.0328 -0.0945,0.0603 0,0 0,0 0,0 l -2.56858,2.56858 -2.56857,-2.56858 c 0,0 0,0 0,0 -0.0278,-0.0275 -0.0601,-0.0476 -0.0945,-0.0603 -0.0942,-0.0352 -0.20399,-0.0151 -0.27966,0.0606 l -1.21338,1.21337 c -0.0757,0.0757 -0.0955,0.18574 -0.0606,0.27967 0.013,0.0344 0.0328,0.0667 0.0606,0.0945 0,0 0,0 0,0 l 2.56857,2.56858 -2.56857,2.56857 c 0,0 0,0 0,0 -0.0275,0.0278 -0.0476,0.0601 -0.0606,0.0945 -0.0352,0.0939 -0.0151,0.20399 0.0606,0.27967 l 1.21338,1.21338 c 0.0757,0.0757 0.18574,0.0955 0.27966,0.0606 0.0344,-0.013 0.0667,-0.0328 0.0945,-0.0606 0,0 0,0 0,0 l 2.56857,-2.56858 2.56858,2.56858 c 0,0 0,0 0,0 0.0278,0.0278 0.0601,0.0476 0.0945,0.0606 0.0942,0.0352 0.20399,0.0151 0.27966,-0.0606 l 1.21338,-1.21338 c 0.0757,-0.0757 0.0958,-0.18574 0.0606,-0.27967 -0.013,-0.0344 -0.0328,-0.0667 -0.0606,-0.0944 z"
       id="path835"
       style="fill:#ffffff;fill-opacity:1;stroke-width:0.264583" />
  </g>
</svg>
